<?xml version="1.0" encoding="UTF-8" standalone="no"?>
<!-- Created with Inkscape (http://www.inkscape.org/) -->

<svg
   xmlns:dc="http://purl.org/dc/elements/1.1/"
   xmlns:cc="http://creativecommons.org/ns#"
   xmlns:rdf="http://www.w3.org/1999/02/22-rdf-syntax-ns#"
   xmlns:svg="http://www.w3.org/2000/svg"
   xmlns="http://www.w3.org/2000/svg"
   xmlns:sodipodi="http://sodipodi.sourceforge.net/DTD/sodipodi-0.dtd"
   xmlns:inkscape="http://www.inkscape.org/namespaces/inkscape"
   width="744.09448819"
   height="1052.3622047"
   id="svg3060"
   version="1.1"
   inkscape:version="0.48.4 r9939"
   sodipodi:docname="New document 4">
  <defs
     id="defs3062" />
  <sodipodi:namedview
     id="base"
     pagecolor="#ffffff"
     bordercolor="#666666"
     borderopacity="1.0"
     inkscape:pageopacity="0.0"
     inkscape:pageshadow="2"
     inkscape:zoom="0.35"
     inkscape:cx="386.31343"
     inkscape:cy="860.52812"
     inkscape:document-units="px"
     inkscape:current-layer="layer1"
     showgrid="false"
     inkscape:window-width="463"
     inkscape:window-height="453"
     inkscape:window-x="729"
     inkscape:window-y="447"
     inkscape:window-maximized="0" />
  <metadata
     id="metadata3065">
    <rdf:RDF>
      <cc:Work
         rdf:about="">
        <dc:format>image/svg+xml</dc:format>
        <dc:type
           rdf:resource="http://purl.org/dc/dcmitype/StillImage" />
        <dc:title></dc:title>
      </cc:Work>
    </rdf:RDF>
  </metadata>
  <g
     inkscape:label="Layer 1"
     inkscape:groupmode="layer"
     id="layer1">
    <path
       style="fill:#a0a0a0;stroke:none"
       d="m 213.78043,372.74954 c -3.40118,-10.80269 -1.79534,-18.83194 5.23825,-26.19146 3.32093,-3.47516 8.32985,-10.57687 11.13056,-15.78193 4.53399,-8.42635 4.31565,-10.49023 -1.99195,-18.82802 -7.29238,-9.63954 -11.03678,-20.43629 -12.26605,-35.36838 -0.56556,-6.87007 1.38683,-10.7325 9.92399,-19.63273 9.12937,-9.51763 12.09445,-11.00825 21.02701,-10.57084 5.71942,0.28008 13.29028,2.13828 16.82413,4.12935 13.58176,7.65235 20.58666,4.65143 38.03512,-16.29437 8.72054,-10.46845 17.60861,-22.00656 19.75128,-25.64021 3.31172,-5.61621 5.67595,-6.22536 15.77,-4.06329 7.45896,1.59767 17.04893,6.70206 25.79081,13.72752 l 13.91659,11.18412 -8.19173,0.65451 c -4.50545,0.35999 -8.16725,1.82983 -8.13734,3.26633 0.0299,1.4365 4.20008,2.02887 9.26705,1.31637 6.23745,-0.87708 10.20477,0.32112 12.28469,3.71022 1.94908,3.17591 4.70512,4.2372 7.53974,2.90338 2.45725,-1.15625 5.70722,-0.91334 7.22215,0.53979 1.51493,1.45313 7.66685,3.80023 13.67093,5.21577 13.2403,3.12158 35.11644,13.96943 42.6759,21.16197 3.40603,3.24076 5.62985,9.91212 5.78481,17.35442 0.29293,14.06843 4.51423,24.15406 13.86274,33.12122 8.31667,7.9774 8.57282,14.27849 0.91273,22.45234 -3.27757,3.49743 -6.85825,9.95056 -7.95703,14.34031 -1.09877,4.38974 -4.49181,10.64728 -7.54009,13.90564 -3.95052,4.22282 -5.36177,11.07045 -4.91363,23.84227 0.6212,17.70424 0.47137,18.08199 -12.56177,31.6694 -12.56283,13.09711 -13.85782,13.7458 -27.21544,13.633 -7.71373,-0.0652 -15.23708,-1.28113 -16.71856,-2.70218 -1.48148,-1.42104 -4.99865,-2.32098 -7.81592,-1.99986 -2.81726,0.32112 -10.79555,-3.64261 -17.72952,-8.8083 -8.10764,-6.04005 -14.51361,-8.84791 -17.94868,-7.86726 -2.9378,0.8387 -4.76236,0.86469 -4.05455,0.0578 2.90127,-3.30761 -81.96746,-13.73032 -85.11153,-10.45253 -0.77589,0.80888 -7.94694,-0.8008 -15.93567,-3.57706 -16.26747,-5.65331 -30.76336,-18.41511 -34.53902,-30.40727 l 0,0 z"
       id="path3029"
       inkscape:connector-curvature="0" />
  </g>
</svg>
